<svg width="22" height="22" viewBox="0 0 22 22" fill="none" xmlns="http://www.w3.org/2000/svg">
<path d="M3.42188 0.451172H16.7031C18.793 0.451172 19.8867 1.55469 19.8867 3.66406V13.8984H10.1895C8.77344 13.8984 8.08008 14.6504 8.08008 16.0664V18.8789C8.08008 20.1777 7.33789 20.9102 6.2832 20.9102C5.16992 20.9102 4.39844 20.1582 4.39844 18.8105V2.38477C4.39844 1.39844 4.14453 0.841797 3.42188 0.451172ZM0.814453 5.31445V3.03906C0.814453 2.42383 1.30273 1.98438 1.89844 1.98438C2.48438 1.98438 2.96289 2.42383 2.96289 3.03906V6.42773H1.95703C1.27344 6.42773 0.814453 5.98828 0.814453 5.31445ZM8.28516 5.63672C8.28516 5.98828 8.54883 6.27148 8.91992 6.27148H15.5508C15.9023 6.27148 16.1758 5.98828 16.1758 5.63672C16.1758 5.29492 15.9023 5.03125 15.5508 5.03125H8.91992C8.54883 5.03125 8.28516 5.29492 8.28516 5.63672ZM8.28516 8.98633C8.28516 9.32812 8.54883 9.60156 8.91992 9.60156H12.4355C12.7969 9.60156 13.0605 9.32812 13.0605 8.98633C13.0605 8.63477 12.7969 8.36133 12.4355 8.36133H8.91992C8.54883 8.36133 8.28516 8.63477 8.28516 8.98633ZM8.5293 21.4473C9.32031 20.6562 9.50586 19.6797 9.50586 18.498V16.4473C9.50586 15.7734 9.96484 15.334 10.6484 15.334H20.8438C21.5273 15.334 21.9863 15.7734 21.9863 16.4473V18.332C21.9863 20.334 20.6973 21.4473 18.7637 21.4473H8.5293Z" fill="#399141"/>
</svg>
