<svg width="22" height="22" viewBox="0 0 22 22" fill="none" xmlns="http://www.w3.org/2000/svg">
<path d="M9.91162 21.3398C9.31592 21.3398 8.87646 20.9883 8.74951 20.4121L8.26123 18.3516C7.9292 18.2344 7.6167 18.1074 7.32373 17.9707L5.52686 19.084C5.03857 19.3867 4.4624 19.3379 4.06201 18.9375L2.81201 17.6777C2.40186 17.2773 2.34326 16.6816 2.66553 16.1934L3.76904 14.4062C3.63232 14.1133 3.50537 13.8008 3.40771 13.498L1.32764 13.0098C0.751465 12.8828 0.409668 12.4434 0.409668 11.8574V10.0996C0.409668 9.52344 0.751465 9.07422 1.32764 8.94727L3.38818 8.44922C3.50537 8.10742 3.63232 7.80469 3.74951 7.54102L2.646 5.71484C2.3335 5.2168 2.37256 4.66016 2.79248 4.25L4.06201 2.99023C4.48193 2.60938 4.98975 2.55078 5.48779 2.82422L7.31396 3.94727C7.60693 3.80078 7.9292 3.67383 8.26123 3.56641L8.74951 1.48633C8.87646 0.910156 9.31592 0.558594 9.91162 0.558594H11.6987C12.2847 0.558594 12.7241 0.910156 12.8511 1.48633L13.3491 3.57617C13.6812 3.69336 13.9937 3.82031 14.2769 3.95703L16.1128 2.82422C16.6108 2.55078 17.1284 2.61914 17.5386 2.99023L18.8081 4.25C19.228 4.66016 19.2671 5.2168 18.9546 5.71484L17.8511 7.54102C17.9683 7.80469 18.105 8.10742 18.2124 8.44922L20.2729 8.94727C20.8491 9.07422 21.1909 9.52344 21.1909 10.0996V11.8574C21.1909 12.4434 20.8491 12.8828 20.2729 13.0098L18.1929 13.498C18.0952 13.8008 17.9683 14.1133 17.8315 14.4062L18.9351 16.1934C19.2573 16.6816 19.1987 17.2773 18.7983 17.6777L17.5386 18.9375C17.1382 19.3379 16.562 19.3867 16.0835 19.084L14.2769 17.9707C13.9839 18.1074 13.6714 18.2344 13.3394 18.3516L12.8511 20.4121C12.7241 20.9883 12.2847 21.3398 11.6987 21.3398H9.91162ZM10.8003 14.3672C12.6851 14.3672 14.2183 12.8242 14.2183 10.9395C14.2183 9.07422 12.6851 7.54102 10.8003 7.54102C8.92529 7.54102 7.39209 9.07422 7.39209 10.9395C7.39209 12.8242 8.92529 14.3672 10.8003 14.3672Z" fill="#399141"/>
</svg>
