<svg width="32" height="16" viewBox="0 0 32 16" fill="none" xmlns="http://www.w3.org/2000/svg">
<path d="M26.1758 15.2734C23.8516 15.2734 22.1035 14.3652 21.3125 12.8418C21.1367 12.5 21.0391 12.1777 21.0391 11.8359C21.0391 11.2207 21.459 10.8301 22.0645 10.8301C22.5625 10.8301 22.8359 11.0352 23.0801 11.5234C23.5293 12.7051 24.6328 13.3691 26.2051 13.3691C28.002 13.3691 29.252 12.3926 29.252 10.9766C29.252 9.46289 28.0605 8.62305 26.0488 8.62305H25.0625C24.5059 8.62305 24.1445 8.27148 24.1445 7.75391C24.1445 7.23633 24.5059 6.89453 25.0625 6.89453H26.0391C27.6895 6.89453 28.8027 6.01562 28.8027 4.64844C28.8027 3.32031 27.748 2.46094 26.1074 2.46094C24.7109 2.46094 23.7148 3.13477 23.2559 4.32617C23.0605 4.81445 22.7969 5.00977 22.2695 5.00977C21.7227 5.00977 21.332 4.63867 21.332 4.0918C21.332 3.73047 21.4102 3.39844 21.5859 3.04688C22.2598 1.58203 23.9688 0.625 26.1562 0.625C29.0078 0.625 31 2.16797 31 4.3457C31 6.09375 29.8086 7.33398 27.9531 7.64648V7.69531C30.1797 7.85156 31.5859 9.11133 31.5859 11.0645C31.5859 13.5254 29.3594 15.2734 26.1758 15.2734ZM10.4629 15.0391C9.81836 15.0391 9.4082 14.6582 9.4082 14.043C9.4082 13.6133 9.58398 13.2812 10.0527 12.8418L14.7109 8.34961C16.4785 6.61133 16.9375 5.85938 16.9375 4.81445C16.9375 3.51562 15.7852 2.49023 14.2812 2.49023C13.1289 2.49023 12.2402 2.99805 11.752 3.80859C11.6055 4.0332 11.498 4.28711 11.4297 4.57031C11.2441 5.10742 10.9805 5.36133 10.4336 5.36133C9.84766 5.36133 9.47656 4.9707 9.47656 4.38477C9.47656 4.12109 9.52539 3.85742 9.63281 3.53516C10.248 1.75781 12.0547 0.634766 14.3008 0.634766C17.1426 0.634766 19.1836 2.36328 19.1836 4.69727C19.1836 6.17188 18.4512 7.40234 16.2539 9.50195L12.4648 13.1055V13.1543H18.6758C19.2715 13.1543 19.6523 13.5352 19.6523 14.1016C19.6523 14.668 19.2617 15.0391 18.6758 15.0391H10.4629ZM5.67773 15.2539C4.98438 15.2539 4.55469 14.834 4.55469 14.1406V3.10547H4.51562L1.89844 4.75586C1.70312 4.88281 1.55664 4.96094 1.27344 4.96094C0.755859 4.96094 0.404297 4.61914 0.404297 4.13086C0.404297 3.75 0.560547 3.47656 0.970703 3.20312L4.07617 1.19141C4.62305 0.839844 4.95508 0.693359 5.52148 0.693359C6.32227 0.693359 6.81055 1.11328 6.81055 1.89453V14.1406C6.81055 14.834 6.36133 15.2539 5.67773 15.2539Z" fill="#399141"/>
</svg>
