<svg width="26" height="21" viewBox="0 0 26 21" fill="none" xmlns="http://www.w3.org/2000/svg">
<path d="M4.26447 14.8848L2.93634 9.50391C2.91681 9.50391 2.88751 9.50391 2.86798 9.50391C1.50079 9.50391 0.387512 8.39062 0.387512 7.02344C0.387512 5.66602 1.50079 4.55273 2.86798 4.55273C4.2254 4.55273 5.33868 5.67578 5.33868 7.02344C5.33868 7.38477 5.26056 7.72656 5.12384 8.0293L7.99493 10.0996C8.27814 10.3047 8.45392 10.2363 8.61017 10.0117L11.9793 5.03125C11.2371 4.60156 10.7293 3.79102 10.7293 2.87305C10.7293 1.51562 11.8328 0.402344 13.2098 0.402344C14.5672 0.402344 15.6805 1.51562 15.6805 2.87305C15.6805 3.79102 15.1727 4.60156 14.4305 5.03125L17.7996 10.0117C17.9559 10.2461 18.1609 10.3145 18.4539 10.1094L21.2859 8.06836C21.1395 7.75586 21.0613 7.39453 21.0613 7.02344C21.0613 5.67578 22.1649 4.55273 23.532 4.55273C24.8992 4.55273 26.0027 5.66602 26.0027 7.02344C26.0027 8.39062 24.8895 9.50391 23.532 9.50391C23.5125 9.50391 23.493 9.50391 23.4832 9.50391L22.1649 14.8848H4.26447ZM4.63556 16.4375H21.7742L21.452 17.7363C21.0613 19.3672 20.1824 20.168 18.5027 20.168H7.91681C6.23712 20.168 5.35822 19.3477 4.95782 17.7363L4.63556 16.4375Z" fill="#399141"/>
</svg>
