<svg width="23" height="22" viewBox="0 0 23 22" fill="none" xmlns="http://www.w3.org/2000/svg">
<path d="M4.91052 21.4414C4.7087 21.2917 4.585 21.0898 4.53943 20.8359C4.50037 20.582 4.54268 20.2793 4.66638 19.9277L6.7074 13.8535L1.49255 10.1035C1.18656 9.88867 0.974976 9.66732 0.857788 9.43945C0.740601 9.21159 0.721069 8.97721 0.799194 8.73633C0.877319 8.50195 1.03031 8.32617 1.25818 8.20898C1.48604 8.0918 1.78878 8.03646 2.16638 8.04297L8.56287 8.08203L10.5062 1.97852C10.6234 1.62044 10.7699 1.35026 10.9457 1.16797C11.128 0.985677 11.3428 0.894531 11.5902 0.894531C11.8441 0.894531 12.059 0.985677 12.2347 1.16797C12.417 1.35026 12.5668 1.62044 12.684 1.97852L14.6273 8.08203L21.0238 8.04297C21.4014 8.03646 21.7041 8.0918 21.932 8.20898C22.1599 8.32617 22.3129 8.50195 22.391 8.73633C22.4691 8.97721 22.4496 9.21159 22.3324 9.43945C22.2152 9.66732 22.0036 9.88867 21.6976 10.1035L16.4828 13.8535L18.5238 19.9277C18.6475 20.2793 18.6866 20.582 18.641 20.8359C18.6019 21.0898 18.4815 21.2917 18.2797 21.4414C18.0778 21.5977 17.85 21.6497 17.5961 21.5977C17.3422 21.5521 17.0655 21.4219 16.766 21.207L11.5902 17.4082L6.42419 21.207C6.12472 21.4219 5.84802 21.5521 5.59412 21.5977C5.34021 21.6497 5.11235 21.5977 4.91052 21.4414Z" fill="#399141"/>
</svg>
